<?xml version="1.0" encoding="UTF-8"?>
<svg id="Layer_1" data-name="Layer 1" xmlns="http://www.w3.org/2000/svg" viewBox="0 0 51.62 64">
  <defs>
    <style>
      .cls-1 {
        fill: #763f98;
      }
    </style>
  </defs>
  <g>
    <path class="cls-1" d="M49.91,50.46c.6-11.19-2.77-13.56-6.15-17.84.49-1.03.76-2.18.76-3.4v-5.38h-.24l.11-1.34c1.66.18,2.7.3,2.71.3,1.12.14,2.15-.67,2.28-1.79.14-1.12-.67-2.15-1.79-2.28-.06,0-1.21-.15-3.06-.34v-3.01c0-7.35-5.98-13.33-13.33-13.33h-3.33c0-1.13-.92-2.05-2.05-2.05h0c-1.13,0-2.05.92-2.05,2.05h-3.33c-7.35,0-13.33,5.98-13.33,13.33v3.01c-1.85.19-3.01.33-3.06.34-1.12.14-1.93,1.16-1.79,2.28.14,1.12,1.16,1.93,2.28,1.79.01,0,1.05-.13,2.71-.3l.11,1.34h-.24v5.38c0,1.22.27,2.37.76,3.4-3.38,4.28-6.75,6.66-6.15,17.84.4,7.52-3.46,12.86-.72,13.52,2.1.51,7.22-9.16,9.14-18.61.93,2.01,2.25,3.84,3.91,5.38,3.21,2.98,7.39,4.62,11.77,4.62s8.56-1.64,11.77-4.62c1.66-1.54,2.98-3.37,3.91-5.38,1.92,9.45,7.04,19.11,9.14,18.61,2.74-.66-1.12-6-.72-13.52ZM25.81,21.28c4.25,0,9.51.37,13.95.77.72.06,1.41.13,2.08.2l-.13,1.59H9.91l-.13-1.59c.67-.06,1.36-.13,2.08-.2,4.44-.4,9.7-.77,13.95-.77ZM9.66,15.38c0-5.94,4.83-10.77,10.77-10.77h4.1v12.57c-4.77.07-10.43.52-14.87.95v-2.75ZM9.66,29.23v-2.82h14.87v2.82c0,2.97-2.42,5.38-5.38,5.38h-4.1c-1.86,0-3.5-.95-4.47-2.38-.58-.86-.92-1.89-.92-3ZM40.49,39.17c-.56,7.66-7.01,13.65-14.68,13.65-7.67,0-14.12-5.99-14.68-13.65l-.25-3.18c1.21.75,2.64,1.18,4.17,1.18h4.1c2.79,0,5.25-1.44,6.67-3.62,1.42,2.18,3.88,3.62,6.67,3.62h4.1c1.53,0,2.96-.43,4.17-1.18l-.25,3.18ZM41.96,29.23c0,1.11-.34,2.14-.92,3-.97,1.43-2.61,2.38-4.47,2.38h-4.1c-2.97,0-5.38-2.41-5.38-5.38v-2.82h14.87v2.82ZM41.96,18.14c-4.45-.43-10.11-.87-14.87-.95V4.62h4.1c5.94,0,10.77,4.83,10.77,10.77v2.75Z"/>
    <circle class="cls-1" cx="19.14" cy="10.91" r="1.28"/>
    <circle class="cls-1" cx="32.48" cy="10.91" r="1.28"/>
  </g>
  <g>
    <path class="cls-1" d="M39.14,31.31c0,.71-.57,1.28-1.28,1.28-.41,0-.77-.19-1-.48,0,0,0,0,0,0-.12-.13-1.02-1.11-2.33-1.11s-2.21.97-2.33,1.11c0,0,0,0-.01.01-.23.29-.59.47-1,.47-.71,0-1.28-.57-1.28-1.28,0-.3.1-.58.28-.8.02-.02.04-.04.05-.06.31-.35,1.86-2.01,4.28-2.01s3.98,1.66,4.28,2.01c.02.02.04.04.05.06.17.22.28.5.28.8Z"/>
    <path class="cls-1" d="M21.71,31.31c0,.71-.57,1.28-1.28,1.28-.41,0-.77-.19-1-.48-.1-.11-1-1.11-2.33-1.11s-2.27,1.04-2.33,1.12c0,0,0,0,0,0-.24.29-.59.47-1,.47-.71,0-1.28-.57-1.28-1.28,0-.3.1-.58.28-.8,0,0,0,0,0,0,0,0,0-.01.01-.02,0,0,.02-.02.03-.03,0,0,.01-.01.02-.02.32-.37,1.87-2.01,4.28-2.01s3.96,1.64,4.28,2.01c0,0,.01.01.02.02,0,0,.02.02.03.03,0,0,.01.01.01.02,0,0,0,0,0,0,.18.22.28.5.28.8Z"/>
    <polygon class="cls-1" points="21.52 42.67 21.52 42.67 21.52 42.66 21.52 42.67"/>
    <path class="cls-1" d="M32.3,43.99h0s0,.01-.01.02c-.01.02-.03.04-.04.06-.34.51-2.27,3.12-6.43,3.12s-6.15-2.69-6.45-3.14c-.01-.02-.03-.04-.04-.06-.11-.19-.18-.42-.18-.66,0-.71.57-1.28,1.28-1.28.46,0,.87.24,1.09.61,0,0,0,0,0,0,0,0,0,0,0,0,.12.18,1.35,1.95,4.28,1.95s4.16-1.77,4.28-1.95h0c.22-.38.63-.63,1.1-.63.71,0,1.28.57,1.28,1.28,0,.24-.07.46-.18.66Z"/>
  </g>
</svg>